<svg xmlns="http://www.w3.org/2000/svg" viewBox="-17762 -22089.119 199.725 160.84"><defs><style>.a{fill:#fa6593;}.a,.b{fill-rule:evenodd;}.b,.d{fill:#333;}.c{fill:#51aafb;}</style></defs><g transform="translate(-18024 -23409.119)"><path class="a" d="M175.193,14.311A7.222,7.222,0,0,0,168.059,7H11.133A7.226,7.226,0,0,0,4,14.311V28.933H175.193Z" transform="translate(272.266 1327.622)"/><path class="b" d="M180.326,5H23.4C11.58,5,2,14.819,2,26.933V143.907c0,12.107,9.58,21.933,21.4,21.933H180.326c11.812,0,21.4-9.826,21.4-21.933V26.933C201.725,14.819,192.138,5,180.326,5Zm14.266,138.907a14.452,14.452,0,0,1-14.266,14.622H23.4A14.453,14.453,0,0,1,9.133,143.907V26.933A14.452,14.452,0,0,1,23.4,12.311H180.326a14.452,14.452,0,0,1,14.266,14.622Z" transform="translate(260 1315)"/><path class="c" d="M0,0H99.862V58.487H0Z" transform="translate(276.266 1378.487)"/><path class="c" d="M0,0H42.8V14.622H0Z" transform="translate(276.266 1444.286)"/><path class="c" d="M0,0H42.8V14.622H0Z" transform="translate(333.33 1444.286)"/><rect class="d" width="64.197" height="7.311" transform="translate(383.261 1378.487)"/><rect class="d" width="64.197" height="7.311" transform="translate(383.261 1407.731)"/><rect class="d" width="64.197" height="7.311" transform="translate(383.261 1393.109)"/><rect class="d" width="64.197" height="7.311" transform="translate(383.261 1422.353)"/><rect class="d" width="64.197" height="7.311" transform="translate(383.261 1436.975)"/><rect class="d" width="64.197" height="7.311" transform="translate(383.261 1451.596)"/></g></svg>