<svg xmlns="http://www.w3.org/2000/svg" viewBox="-16587.922 -15134 171.154 163.14"><defs><style>.a{fill:#fa9c5a;}.a,.b{fill-rule:evenodd;}.b{fill:#51aafb;}.c{fill:#333;}</style></defs><g transform="translate(-16587.922 -15134)"><path class="a" d="M31.682,16.984S74.622,53.526,80.3,59.208A15.678,15.678,0,0,1,58.132,81.38C52.757,76,16.007,32.658,16.007,32.658Z" transform="translate(67.377 70.795)"/><g transform="translate(14.382 6.278)"><path class="b" d="M155.335,32.008,136.8,50.548l-21.966-5.883-5.883-21.959,18.535-18.54A31.329,31.329,0,0,0,92.844,35.351a31.013,31.013,0,0,0,4.61,16.176C75.325,70.544,14,123.317,9.6,127.721a15.68,15.68,0,0,0,22.179,22.172c4.648-4.641,57.229-65.77,76.2-87.848a31.041,31.041,0,0,0,16.164,4.6A31.361,31.361,0,0,0,155.5,35.288C155.5,34.178,155.442,33.08,155.335,32.008ZM64.819,99.113,24.9,139.029a3.136,3.136,0,0,1-4.435-4.434l39.917-39.91a3.136,3.136,0,0,1,4.441,4.428Z" transform="translate(-5.006 -3.99)"/></g><g transform="translate(0 0)"><path class="c" d="M136.232,78.192a37.639,37.639,0,0,0,36.775-45.636c-.834-3.751-5.3-4.485-7.922-1.857l-18.071,18.07-14.922-4,.013.05-.063-.063.05.013-4-14.915,18.071-18.07c2.622-2.622,1.888-7.1-1.863-7.928a37.592,37.592,0,0,0-42.213,52.41C96.177,61.282,89.259,67.14,81.964,73.337L45.283,36.658v-12L19.4,7.392,2.713,24.07,19.968,49.961H31.973L67.563,85.549c-24.594,20.886-48.8,41.49-50.31,43.008A21.952,21.952,0,0,0,48.3,159.6c1.242-1.242,18.7-21.72,37.734-44.118C101.1,133.243,121.9,157.71,123.888,159.7a21.95,21.95,0,0,0,31.042-31.041c-1.85-1.85-28.445-24.493-46.365-39.715,4.328-5.1,8.4-9.9,12.03-14.181A37.415,37.415,0,0,0,136.232,78.192ZM34.614,43.727H23.368L10.823,24.91,20.232,15.5,39.049,28.046V39.292L77.159,77.4c-1.593,1.349-3.186,2.71-4.8,4.071ZM150.4,133a15.678,15.678,0,0,1-22.173,22.172c-4.315-4.315-28.809-33.054-38.318-44.237q2.719-3.2,5.426-6.4l39.861,39.859a3.136,3.136,0,0,0,4.435-4.434L99.715,100.05a3.425,3.425,0,0,0-.37-.245c1.844-2.176,3.676-4.328,5.469-6.442C114.624,101.725,145.616,128.219,150.4,133ZM43.866,155.17A15.68,15.68,0,0,1,21.687,133c4.4-4.4,65.728-57.177,87.857-76.194a31.013,31.013,0,0,1-4.61-16.176A31.329,31.329,0,0,1,139.575,9.443l-18.535,18.54,5.883,21.959,21.966,5.883,18.535-18.54c.107,1.073.169,2.17.169,3.274A31.361,31.361,0,0,1,136.232,71.92a31.041,31.041,0,0,1-16.164-4.6C101.088,89.4,48.514,150.529,43.866,155.17Z" transform="translate(-2.713 -2.989)"/></g></g></svg>