<svg xmlns="http://www.w3.org/2000/svg" viewBox="-17626.354 -13662 169.934 183"><defs><style>.a{fill:#51aafb;}.a,.b,.c{fill-rule:evenodd;}.b{fill:#fa9c5a;}.c{fill:#484848;}</style></defs><g transform="translate(-17626.354 -13662)"><path class="a" d="M4.195,72.129c.562-3.15,6.072-24.248,9.882-28.058C17.934,40.215,41.8,27.81,60.038,21.209L81.352,45.986l21.3-24.777c18.248,6.595,42.111,19,45.974,22.862,3.81,3.81,9.32,24.908,9.882,28.058Z" transform="translate(3.615 104.336)"/><g transform="translate(46.006 6.536)"><path class="b" d="M35.928,29.143c19.608-2.7,26.843-5.287,33.379-11.823a41.793,41.793,0,0,0,18.1,17.973C85.058,18.79,76.464,3,49,3,18.706,3,11.353,22.215,10.039,40.41,11.261,34.966,18.379,31.555,35.928,29.143Zm32.68,52.286H29.392C19.17,81.429,13,73.455,10.771,66.841,12.006,79.18,14.5,91.552,18.843,97.716c3.5,4.98,15.5,16.392,30.2,16.392s26.542-11.346,29.967-16.215c4.549-6.47,7.039-18.888,8.248-31.169C85.078,73.357,78.895,81.429,68.607,81.429Zm-.477,9.96c-2.85,4.647-10.046,9.647-19.131,9.647s-16.281-5-19.124-9.647a3.268,3.268,0,0,1,2.784-4.974h32.68a3.268,3.268,0,0,1,2.791,4.974Z" transform="translate(-10.039 -3)"/></g><g transform="translate(0 0)"><path class="c" d="M104.307,54.286c4.85,0,9.967,2.823,10.02,2.85l3.2-5.7c-.268-.15-6.627-3.686-13.216-3.686a52.23,52.23,0,0,0-12.5,1.758L93.575,55.8A45.43,45.43,0,0,1,104.307,54.286Zm55.555,91.5c-4.634-4.634-25.8-15.8-44.5-22.757l-1.941-5.954a47.088,47.088,0,0,0,10.307-10.411c2.673-3.915,4.627-9.372,6.1-15.424,9.752-6.889,16.961-15.516,16.961-24.7,0-7.673-6.562-13.83-13.118-15.222C133.222,25.326,123.862,2,87.967,2,51.117,2,42.216,26.548,42.216,53.351c0,16.176,1.908,41.515,9.863,53.155a47.334,47.334,0,0,0,10.451,10.516l-1.954,6c-18.706,6.961-39.869,18.13-44.5,22.764C9.536,152.321,3,185,3,185H172.934S166.4,152.321,159.862,145.786Zm-26.216-87.65c3.222,1.248,6.608,4.431,6.608,8.4,0,5.078-3.379,10.157-8.458,14.784A189.408,189.408,0,0,0,133.647,58.135Zm-75.83,45.116c-6.725-9.542-9.065-33.94-9.065-50.09,0-.693.02-1.405.033-2.111.941-1.19,9.124-11.032,25.614-13.49l2.647-.392c16.477-2.444,23.3-3.451,31.229-14.313L103,19C96.673,27.653,92.313,28.293,76.085,30.7l-2.654.392A49.342,49.342,0,0,0,49.464,41.371c2.255-16.7,10.745-32.835,38.5-32.835,34.372,0,39.216,24.718,39.216,44.626,0,9.921-.837,23.1-3.17,34.045a89.485,89.485,0,0,1-12.941,6.921,3.5,3.5,0,0,0-1.954,4.582,3.363,3.363,0,0,0,4.346,1.588c2.66-1.137,5.307-2.425,7.882-3.817a30.708,30.708,0,0,1-3.359,6.947c-3.431,4.869-15.248,16.215-29.974,16.215C73.307,119.643,61.307,108.231,57.817,103.251ZM20.693,150.406c3.856-3.856,27.719-16.261,45.961-22.862l2.1-6.542a40.385,40.385,0,0,0,19.261,5.176,40.259,40.259,0,0,0,19.17-5.124l2.078,6.49c18.248,6.595,42.111,19,45.974,22.862,3.81,3.81,9.32,24.908,9.882,28.058H10.81C11.373,175.314,16.882,154.217,20.693,150.406Zm83.614-92.853c-2.869,0-5.2,2.928-5.2,6.536s2.327,6.536,5.2,6.536,5.2-2.928,5.2-6.536S107.176,57.554,104.307,57.554Zm-32.68,0c-2.869,0-5.2,2.928-5.2,6.536s2.327,6.536,5.2,6.536,5.2-2.928,5.2-6.536S74.5,57.554,71.627,57.554ZM58.412,51.436l3.2,5.7c.052-.026,5.163-2.85,10.013-2.85A46.51,46.51,0,0,1,82.359,55.8L84.13,49.5a52.772,52.772,0,0,0-12.5-1.752C65.039,47.75,58.68,51.286,58.412,51.436Z" transform="translate(-3 -2)"/></g></g></svg>