<svg xmlns="http://www.w3.org/2000/svg" viewBox="-17180.854 -22089.34 198.531 172.061"><defs><style>.a{fill:#f9f33d;}.b{fill:#51aafb;}.b,.c,.d{fill-rule:evenodd;}.c{fill:#fa9c5a;}.d{fill:#333;}</style></defs><g transform="translate(-18023.854 -23409.34)"><path class="a" d="M2.246,59.077c.41-2.31,3.17-21.256,5.956-24.042,2.819-2.819,24.836-10.092,38.171-14.923L63.48,39.965,80.587,20.112c7.763,2.806,18.073,6.671,25.889,9.973,0,0-1.654,7.954-3.289,8.3C89.951,41.17,64.737,56.768,65.154,59.077Z" transform="translate(849 1406.513)"/><g transform="translate(876.916 1326.618)"><path class="b" d="M59.484,64.559H23.913c-9.437,0-15.049-3.216-16.974-7.273,1.079,10.6,3.349,21.4,7.412,26.7C17.514,88.138,28.4,97.648,41.735,97.648c11.925,0,21.713-7.524,25.889-12.024a143.943,143.943,0,0,1-1.906-21.66A33.232,33.232,0,0,1,59.484,64.559Zm1.582,10.085C58.18,79.35,50.894,84.413,41.7,84.413S25.21,79.35,22.332,74.645a3.3,3.3,0,0,1,2.819-5.029H58.24a3.305,3.305,0,0,1,2.826,5.029ZM33.423,30.094c17.788-2.25,20.766-7.7,26.689-13.149,5.063,9.3,13.91,13.838,16.419,14.983C74.4,18.163,66.6,5,41.7,5,10.539,5,6.125,25.614,6.125,42.211c0,2.329.093,4.9.225,7.531C7.488,43.793,16.912,32.179,33.423,30.094Z" transform="translate(-6.125 -5)"/></g><path class="b" d="M11.246,62.077c.41-2.31,3.17-21.256,5.956-24.042,2.819-2.819,24.836-10.092,38.171-14.923L72.486,42.965,89.593,23.112c13.341,4.824,34.194,12.779,37.02,15.591C129.4,41.5,133.3,59.768,133.72,62.077Z" transform="translate(899.559 1423.366)"/><g transform="translate(936.475 1346.471)"><path class="c" d="M42.423,33.094c17.788-2.25,20.766-7.7,26.689-13.149,5.063,9.3,13.917,13.838,16.419,14.983C83.4,21.163,75.611,8,50.7,8c-31.156,0-35.57,20.614-35.57,37.211,0,2.329.093,4.9.225,7.538C16.488,46.793,25.912,35.179,42.423,33.094ZM68.484,67.559H32.913c-9.437,0-15.049-3.216-16.974-7.279,1.079,10.608,3.349,21.4,7.412,26.7,3.163,4.163,14.043,13.672,27.384,13.672,13.361,0,24.082-9.463,27.186-13.52,4.249-5.559,6.505-16.379,7.564-26.9C83.592,64.31,77.96,67.559,68.484,67.559Zm1.582,10.085C67.18,82.35,59.894,87.413,50.7,87.413S34.21,82.35,31.332,77.645a3.309,3.309,0,0,1,2.819-5.036H67.24a3.309,3.309,0,0,1,2.826,5.036Z" transform="translate(-15.125 -8)"/></g><g transform="translate(843 1320)"><path class="d" d="M146.59,78.582c2.237,0,4.05-2.283,4.05-5.1s-1.813-5.1-4.05-5.1-4.05,2.283-4.05,5.1S144.353,78.582,146.59,78.582Zm52.942,97.479s-5.36-26.722-10.681-32.05c-3.785-3.785-21.111-12.931-36.4-18.616l-.966-2.958a41.2,41.2,0,0,0,9.6-9.338c7.008-10.059,8.669-31.659,8.669-45.45,0-22.858-7.736-43.789-39.706-43.789-9.384,0-16.63,1.84-22.255,4.963C103.608,14.549,93.158,4,70.486,4,38.509,4,30.78,24.938,30.78,47.789c0,13.791,1.654,35.4,8.557,45.331a41.44,41.44,0,0,0,9.721,9.424l-.979,3c-15.287,5.685-32.592,14.83-36.391,18.616C6.34,129.485,1,156.207,1,156.207H65.609c-2.918,9.2-5.049,19.853-5.049,19.853Zm-15.36-27.371c1.688,1.846,4.659,10.694,7.107,20.753H68.805c2.449-10.059,5.427-18.9,7.127-20.76,2.482-2.475,18.2-11.2,34.015-17.087l2.985-1.118,1.5-4.566a33.967,33.967,0,0,0,31.242.04l1.482,4.533,2.991,1.118C165.986,137.493,181.69,146.208,184.172,148.69ZM130.045,30.471c22.884,0,33.089,11.462,33.089,37.172,0,14.956-1.965,33.757-7.478,41.672-3.322,4.785-12.924,13.8-25.571,13.8-11.78,0-21.858-8.332-25.763-13.93-4.474-6.439-7.366-22.738-7.366-41.539C96.957,41.933,107.161,30.471,130.045,30.471ZM44.77,89.335C40.289,82.9,37.4,66.6,37.4,47.789c0-25.71,10.2-37.172,33.089-37.172,17.868,0,27.907,7.107,31.494,22.4C93.105,41.258,90.339,54.1,90.339,67.643A161.072,161.072,0,0,0,92.391,93.71c-4.705,4.54-12.435,9.556-21.865,9.556C58.746,103.266,48.667,94.934,44.77,89.335Zm51.023,17.378c-.966-.384-1.939-.821-2.9-1.178l-.966-2.958c.721-.51,1.37-1.046,2.032-1.575A52.59,52.59,0,0,0,95.792,106.714ZM9.246,149.59c2.449-10.059,5.427-18.9,7.127-20.76,2.482-2.475,18.2-11.2,34.008-17.087l2.991-1.118,1.489-4.566a33.98,33.98,0,0,0,31.249.04l1.482,4.533,2.991,1.118c3.8,1.416,7.511,2.991,11.1,4.6a44.091,44.091,0,0,0,6.935,6.049l-.979,3c-15.287,5.685-32.586,14.83-36.384,18.616a18.539,18.539,0,0,0-3.236,5.579Zm44.7-101.053c-2.237,0-4.05,2.283-4.05,5.1s1.813,5.1,4.05,5.1,4.05-2.283,4.05-5.1S56.179,48.537,53.942,48.537ZM87.03,58.729c2.237,0,4.05-2.283,4.05-5.1s-1.813-5.1-4.05-5.1-4.05,2.283-4.05,5.1S84.794,58.729,87.03,58.729ZM113.5,78.582c2.237,0,4.05-2.283,4.05-5.1s-1.813-5.1-4.05-5.1-4.05,2.283-4.05,5.1S111.264,78.582,113.5,78.582Z" transform="translate(-1 -4)"/></g></g></svg>