<svg xmlns="http://www.w3.org/2000/svg" viewBox="-17727.297 -15134 130.516 163.14"><defs><style>.a{fill:#51aafb;}.a,.b{fill-rule:evenodd;}.b{fill:#fa9c5a;}.c{fill:#333;}</style></defs><g transform="translate(-17727.297 -15134)"><path class="a" d="M6,14H44.067v5.438H6ZM6,30.314H82.134v5.438H6ZM6,46.628H82.134v5.438H6ZM6,62.942H82.134V68.38H6ZM6,79.256H82.134v5.438H6Z" transform="translate(4.876 56.694)"/><path class="b" d="M15,8H36.753v5.438H15ZM74.82,24.314H31.314l5.438,5.438H74.82ZM47.629,40.628H74.82v5.438H47.629Zm0,16.314H74.82V62.38H47.629Zm0,16.314H74.82v5.438H47.629Z" transform="translate(44.82 30.066)"/><path class="c" d="M131.329,39.066,96.449,4.187C94.524,2.262,94.388,1,91.011,1H44.786a8.16,8.16,0,0,0-8.157,8.157V33.628H12.157A8.16,8.16,0,0,0,4,41.785v114.2a8.16,8.16,0,0,0,8.157,8.157H93.73a8.16,8.16,0,0,0,8.157-8.157V131.512h24.472a8.16,8.16,0,0,0,8.157-8.157V44.5C134.516,41.067,133.254,40.991,131.329,39.066Zm-34.88-27.19,27.191,27.19H99.168a2.724,2.724,0,0,1-2.719-2.719Zm0,144.107A2.727,2.727,0,0,1,93.73,158.7H12.157a2.724,2.724,0,0,1-2.719-2.719V41.785a2.72,2.72,0,0,1,2.719-2.719H58.382V68.975a8.157,8.157,0,0,0,8.157,8.157h29.91ZM63.82,68.975V44.5l27.191,27.19H66.539A2.72,2.72,0,0,1,63.82,68.975Zm65.258,54.38a2.727,2.727,0,0,1-2.719,2.719H101.887V77.132c0-3.437-1.262-3.513-3.187-5.438L63.82,36.815c-1.925-1.925-2.061-3.187-5.438-3.187H42.067V9.157a2.72,2.72,0,0,1,2.719-2.719H91.011V36.347A8.16,8.16,0,0,0,99.168,44.5h29.91Z" transform="translate(-4 -1)"/></g></svg>