<svg xmlns="http://www.w3.org/2000/svg" viewBox="-16588 -22100.34 172.061 172.061">
  <defs>
    <style>
      .cls-1 {
        fill: #c0fa62;
      }

      .cls-1, .cls-2 {
        fill-rule: evenodd;
      }

      .cls-2 {
        fill: #333;
      }
    </style>
  </defs>
  <g id="Group_131" data-name="Group 131" transform="translate(-16591 -22103.34)">
    <path id="Path_40" data-name="Path 40" class="cls-1" d="M20.949,114.047a66.159,66.159,0,0,1,93.1-93.1ZM123.4,30.307l-93.1,93.1a66.159,66.159,0,0,0,93.1-93.1Z" transform="translate(16.853 16.853)"/>
    <path id="Path_41" data-name="Path 41" class="cls-2" d="M62.513,64.823c0-9.238,5.387-19.787,19.9-21.713V29.471H89.03V42.845c14.466.728,20.786,9.218,22.4,11.932l-5.685,3.388c-.88-1.489-5.9-8.841-18.6-8.841-16.716,0-18.013,11.866-18.013,15.5,0,6.446,2.144,12.805,18.477,15.638.165.026.364.066.536.1l-5.632,5.632C72.976,83.954,62.513,78.951,62.513,64.823Zm40.183,19.9L97.58,89.838c8.312,3.077,11.621,7.577,11.323,14.407-.357,8.153-4.507,17.874-22.275,17.874a24.487,24.487,0,0,1-15.909-5.42l-4.712,4.712a30.4,30.4,0,0,0,16.405,7.081v13.48H89.03V128.631c22.884-1.072,26.18-17.074,26.484-24.1C115.971,93.822,109.764,88.018,102.7,84.722ZM89.03,9.618A79.413,79.413,0,1,0,168.443,89.03,79.416,79.416,0,0,0,89.03,9.618Zm86.03,79.413A86.03,86.03,0,1,1,89.03,3,86.028,86.028,0,0,1,175.061,89.03Z" transform="translate(0 0)"/>
  </g>
</svg>
