<svg xmlns="http://www.w3.org/2000/svg" viewBox="-17164.957 -15134 165.322 171.439"><defs><style>.a{fill:#baf25f;}.a,.c{fill-rule:evenodd;}.b{fill:#333;}.c{fill:#fa9c5a;}</style></defs><g transform="translate(-17164.957 -15134)"><path class="a" d="M41.615,24c16.906,0,30.615,4.115,30.615,9.184s-13.71,9.184-30.615,9.184S11,38.254,11,33.184,24.71,24,41.615,24Z" transform="translate(41.046 110.703)"/><g transform="translate(0 0)"><path class="b" d="M132.854,118.334H96.715c6.57-20.689,15.957-30.749,21.676-41.011,1.1-1.959,2.039-3.668,2.8-5.125a63.2,63.2,0,0,0,6.827-27.339,42.861,42.861,0,0,0-85.723,0A62.221,62.221,0,0,0,49.121,72.2c.765,1.457,1.714,3.166,2.81,5.125,5.719,10.262,15.1,20.322,21.669,41.011H37.475L2.5,173.44H167.822ZM66.412,44.86A18.56,18.56,0,1,1,84.971,63.229,18.464,18.464,0,0,1,66.412,44.86Zm-25.576,79.6h34.54a156.28,156.28,0,0,1,3.717,19.183,6.122,6.122,0,0,0,12.136,0,157.507,157.507,0,0,1,3.711-19.183h34.54l27.2,42.86H13.638Z" transform="translate(-2.5 -2)"/></g><path class="c" d="M46.738,3A36.673,36.673,0,0,1,83.477,39.737a55.637,55.637,0,0,1-6.313,24.491C71.041,75.893,52.672,91.781,46.548,137.7c-6.123-45.921-24.492-61.81-30.615-73.474A55.782,55.782,0,0,1,10,39.737,36.673,36.673,0,0,1,46.738,3Zm-.19,12.246A24.492,24.492,0,1,1,21.866,39.737,24.589,24.589,0,0,1,46.548,15.246Z" transform="translate(35.923 3.123)"/></g></svg>