<svg xmlns="http://www.w3.org/2000/svg" viewBox="-17975.16 -23353.199 302.4 86.76">
  <defs>
    <style>
      .cls-1 {
        fill: #fcfcff;
      }
    </style>
  </defs>
  <path id="Path_180" data-name="Path 180" class="cls-1" d="M28.56-28.56a15.83,15.83,0,0,1,7.72,1.88,13.873,13.873,0,0,1,5.4,5.2A14.434,14.434,0,0,1,43.64-14a14.434,14.434,0,0,1-1.96,7.48,13.873,13.873,0,0,1-5.4,5.2A15.83,15.83,0,0,1,28.56.56a16.354,16.354,0,0,1-6.9-1.44,13.93,13.93,0,0,1-5.2-4.04,13.888,13.888,0,0,1-2.74-5.96H10.8V0H3V-28h7.8v10.48h3a13.755,13.755,0,0,1,2.84-5.78,14.115,14.115,0,0,1,5.16-3.88A16.344,16.344,0,0,1,28.56-28.56ZM28.56-6a6.652,6.652,0,0,0,3.6-1A7.088,7.088,0,0,0,34.7-9.8a8.949,8.949,0,0,0,.94-4.2,8.949,8.949,0,0,0-.94-4.2A7.088,7.088,0,0,0,32.16-21a6.652,6.652,0,0,0-3.6-1,6.857,6.857,0,0,0-3.62.98,6.865,6.865,0,0,0-2.56,2.8A9.071,9.071,0,0,0,21.44-14a9.071,9.071,0,0,0,.94,4.22,6.865,6.865,0,0,0,2.56,2.8A6.857,6.857,0,0,0,28.56-6ZM69-14.64a7.54,7.54,0,0,1,3.78,2.48A6.594,6.594,0,0,1,74.08-8a6.889,6.889,0,0,1-2.9,5.86Q68.28,0,62.96,0H48.6V-28H62.2q5.04,0,7.82,1.9a6.138,6.138,0,0,1,2.78,5.38,6.624,6.624,0,0,1-.98,3.6A6.85,6.85,0,0,1,69-14.64ZM56.4-16.8h5.04q3.36,0,3.36-2.76t-3.36-2.76H56.4ZM62.64-5.68q3.44,0,3.44-2.92,0-2.84-3.44-2.84H56.4v5.76Zm38.88-.44V0H79.04V-28H101v6.12H86.88v4.72H99.32v5.92H86.88v5.12ZM132.84-28V0h-7.8V-21.72H117l-.16,4.56a59.437,59.437,0,0,1-.98,9.76,12.123,12.123,0,0,1-2.66,5.82A6.838,6.838,0,0,1,107.88.48a15.585,15.585,0,0,1-3.6-.48l.44-6.48a4.788,4.788,0,0,0,1.08.12,2.726,2.726,0,0,0,2.4-1.24,8.661,8.661,0,0,0,1.2-3.46,47.473,47.473,0,0,0,.48-5.78l.4-11.16Zm6.68,0h7.8v16.44L158.88-28h7.44V0h-7.8V-16.4L147,0h-7.48Zm46.28,0a15.97,15.97,0,0,1,6.6,1.26,9.788,9.788,0,0,1,4.32,3.6,9.87,9.87,0,0,1,1.52,5.5,9.772,9.772,0,0,1-1.52,5.48,9.836,9.836,0,0,1-4.32,3.58,15.97,15.97,0,0,1-6.6,1.26h-4.88V0H173V-28Zm-.48,14.44A5.534,5.534,0,0,0,189-14.62a3.755,3.755,0,0,0,1.24-3.02A3.816,3.816,0,0,0,189-20.68a5.462,5.462,0,0,0-3.68-1.08h-4.4v8.2ZM229.12-28V0H221.2V-10.92H210.4V0h-7.92V-28h7.92v10.52h10.8V-28Zm20.96,8.92q5.16,0,7.96,2.3t2.8,6.82q0,4.84-3.12,7.4T249.04,0H235.8V-28h7.8v8.92Zm-1.56,13.4a4.528,4.528,0,0,0,3.18-1.08,3.913,3.913,0,0,0,1.18-3.04q0-3.64-4.36-3.64H243.6v7.76ZM263.92-28h7.8V0h-7.8Zm14.52,0h7.8v16.44L297.8-28h7.44V0h-7.8V-16.4L285.92,0h-7.48Zm13.36-1.68q-4.24,0-6.22-1.64a5.971,5.971,0,0,1-1.98-4.88h5.32a2.957,2.957,0,0,0,.72,2.08,2.955,2.955,0,0,0,2.16.68,3.106,3.106,0,0,0,2.2-.68,2.853,2.853,0,0,0,.76-2.08h5.32a5.943,5.943,0,0,1-2,4.88Q296.08-29.68,291.8-29.68ZM14.32,39.28h-3.6V50H2.84V22h7.88V32.88h3.8L21.2,22h8.32L20.76,35.52,29.6,50H20.68Zm37.16,5.28H39.64L37.44,50H29.36L41.72,22h7.8l12.4,28H53.68Zm-2.32-5.84-3.6-8.96-3.6,8.96Zm37.8-10.44H78.4V50H70.6V28.28H62V22H86.96ZM109.2,44.56H97.36L95.16,50H87.08L99.44,22h7.8l12.4,28H111.4Zm-2.32-5.84-3.6-8.96-3.6,8.96ZM149.96,22V50h-7.8V28.28h-8.04l-.16,4.56a59.436,59.436,0,0,1-.98,9.76,12.123,12.123,0,0,1-2.66,5.82A6.838,6.838,0,0,1,125,50.48a15.585,15.585,0,0,1-3.6-.48l.44-6.48a4.788,4.788,0,0,0,1.08.12,2.726,2.726,0,0,0,2.4-1.24,8.661,8.661,0,0,0,1.2-3.46,47.473,47.473,0,0,0,.48-5.78L127.4,22ZM170.4,50.56a16.747,16.747,0,0,1-7.98-1.88,14.317,14.317,0,0,1,0-25.36,17.876,17.876,0,0,1,15.96,0,14.317,14.317,0,0,1,0,25.36A16.747,16.747,0,0,1,170.4,50.56Zm0-6.56a7.5,7.5,0,0,0,3.84-1,7.193,7.193,0,0,0,2.72-2.82,9.236,9.236,0,0,0,0-8.36A7.193,7.193,0,0,0,174.24,29a7.873,7.873,0,0,0-7.68,0,7.193,7.193,0,0,0-2.72,2.82,9.236,9.236,0,0,0,0,8.36A7.193,7.193,0,0,0,166.56,43,7.5,7.5,0,0,0,170.4,44Zm40.96-15.72H198.68V50h-7.8V22H211.4Z" transform="translate(-17978 -23317)"/>
</svg>
