<svg xmlns="http://www.w3.org/2000/svg" viewBox="-17758.184 -10797 209.158 183"><defs><style>.a{fill:#baf25f;}.b{fill:#333;}</style></defs><g transform="translate(-17758.184 -10797)"><path class="a" d="M197.07,135.709H76.4l-36.53,36.537.33-36.537H4V7H197.07ZM100.535,23.089A48.266,48.266,0,1,0,148.8,71.354,48.274,48.274,0,0,0,100.535,23.089Z" transform="translate(4.045 1.044)"/><g transform="translate(0 0)"><path class="b" d="M196.07,6H19.089A16.1,16.1,0,0,0,3,22.089v112.62A16.1,16.1,0,0,0,19.089,150.8H43.223V189l38.2-38.2H196.07a16.1,16.1,0,0,0,16.089-16.089V22.089A16.1,16.1,0,0,0,196.07,6Zm8.045,128.709a8.042,8.042,0,0,1-8.045,8.044H78.088L51.267,169.581V142.753H19.089a8.047,8.047,0,0,1-8.045-8.044V22.089a8.047,8.047,0,0,1,8.045-8.044H196.07a8.042,8.042,0,0,1,8.045,8.044Z" transform="translate(-3 -6)"/></g><path class="b" d="M30.089,69.252A8.042,8.042,0,0,1,22.045,77.3h0A8.042,8.042,0,0,1,14,69.252h0a8.042,8.042,0,0,1,8.045-8.044h0a8.042,8.042,0,0,1,8.045,8.044ZM47.811,16.28a4.03,4.03,0,0,0-2.2-5.253h0a4.017,4.017,0,0,0-5.245,2.188L27.716,43.985A4.028,4.028,0,0,0,29.9,49.23h0a4.029,4.029,0,0,0,5.253-2.18Z" transform="translate(74.49 27.28)"/></g></svg>